<?xml version="1.0" encoding="UTF-8" standalone="no"?>
<!-- Created with Inkscape (http://www.inkscape.org/) -->

<svg
        viewBox="0 0 130.09523 129.95303"
        version="1.1"
        id="svg1"
        xml:space="preserve"
        xmlns="http://www.w3.org/2000/svg"
        xmlns:svg="http://www.w3.org/2000/svg"><defs
     id="defs1" /><g
     id="layer1"
     transform="translate(-615.97385,-237.74062)"><circle
       style="fill:#ececec;stroke:none;stroke-width:7.07229;stroke-linecap:square;stroke-miterlimit:32.4;stroke-dasharray:none;stroke-opacity:1"
       id="circle15"
       cx="680.95038"
       cy="302.71713"
       r="58.976524" /><path
       style="fill:none;stroke:#333333;stroke-width:12.5;stroke-linecap:butt;stroke-miterlimit:32.4;stroke-dasharray:none;stroke-opacity:1"
       d="m 647.88711,253.88014 v 97.67398"
       id="path3" /><path
       style="fill:none;stroke:#333333;stroke-width:12.5;stroke-linecap:butt;stroke-miterlimit:32.4;stroke-dasharray:none;stroke-opacity:1"
       d="M 714.01365,351.55412 V 253.88014"
       id="path4" /><path
       style="fill:#333333;fill-opacity:1;stroke:#333333;stroke-width:6.52613;stroke-linecap:round;stroke-miterlimit:32.4;stroke-dasharray:none;stroke-opacity:1"
       d="m 667.11247,265.94281 c -7.36102,-5.93786 -13.47682,-10.88926 -13.59067,-11.0031 -0.37951,-0.37952 6.18697,-3.42745 10.21816,-4.7429 6.40577,-2.09032 9.84136,-2.59023 17.61958,-2.5638 7.42802,0.0252 10.9728,0.5665 17.09428,2.6102 4.03006,1.34545 9.89581,4.10859 9.74289,4.58951 -0.13457,0.42326 -27.13403,21.97333 -27.4786,21.9325 -0.12205,-0.0145 -6.24459,-4.88455 -13.60564,-10.82241 z"
       id="path7" /><path
       style="fill:#333333;fill-opacity:1;stroke:#333333;stroke-width:6.52613;stroke-linecap:round;stroke-miterlimit:32.4;stroke-dasharray:none;stroke-opacity:1"
       d="m 667.11247,338.07778 c -7.36102,5.93787 -13.47682,10.88926 -13.59067,11.0031 -0.37951,0.37953 6.18697,3.42746 10.21816,4.74291 6.40577,2.09031 9.84136,2.59022 17.61958,2.5638 7.42802,-0.0253 10.9728,-0.56651 17.09428,-2.61021 4.03006,-1.34545 9.89581,-4.10859 9.74289,-4.5895 -0.13457,-0.42327 -27.13403,-21.97333 -27.4786,-21.93251 -0.12205,0.0145 -6.24459,4.88455 -13.60564,10.82241 z"
       id="path9" /><circle
       style="fill:none;stroke:#9e191d;stroke-width:12;stroke-linecap:square;stroke-miterlimit:32.4;stroke-dasharray:none;stroke-opacity:1"
       id="path1"
       cx="680.95038"
       cy="302.71713"
       r="58.976524" /><path
       style="fill:none;stroke:#9e191d;stroke-width:12;stroke-linecap:round;stroke-miterlimit:32.4;stroke-dasharray:none;stroke-opacity:1"
       d="m 680.80819,243.74061 h 59.26088"
       id="path2" /><text
       xml:space="preserve"
       style="font-size:21.6949px;line-height:2.5ex;font-family:STIXSizeFourSym;-inkscape-font-specification:'STIXSizeFourSym, Normal';text-align:center;letter-spacing:0px;writing-mode:lr-tb;direction:ltr;text-anchor:middle;fill:#a61b20;fill-opacity:0.985782;stroke:#9e191d;stroke-width:1.987;stroke-linecap:round;stroke-miterlimit:32.4;stroke-dasharray:none;stroke-opacity:1"
       x="679.14954"
       y="328.45889"
       id="text14"><tspan
         id="tspan14"
         style="font-style:normal;font-variant:normal;font-weight:normal;font-stretch:normal;font-size:72.317px;font-family:'DIN Alternate';-inkscape-font-specification:'DIN Alternate, Normal';font-variant-ligatures:normal;font-variant-caps:normal;font-variant-numeric:normal;font-variant-east-asian:normal;fill:#a61b20;fill-opacity:0.985782;stroke:#9e191d;stroke-width:1.987;stroke-dasharray:none;stroke-opacity:1"
         x="679.14954"
         y="328.45889">C</tspan></text></g></svg>
